<svg width="46" height="41" xmlns="http://www.w3.org/2000/svg" xmlns:svg="http://www.w3.org/2000/svg">
 <g>
  <title>Layer 1</title>
  <g stroke="null" id="svg_1">
   <g stroke="null" id="svg_2">
    <g stroke="null" id="svg_3">
     <path stroke="null" id="svg_4" d="m14.397061,27.29573c-0.510338,0 -1.020675,-0.255169 -1.360901,-0.68045c-1.531013,-2.126407 -2.126407,-4.678096 -1.701126,-7.229784c0.425281,-2.551689 1.786182,-4.848208 3.912589,-6.294165c4.337871,-3.147083 10.461923,-2.126407 13.609006,2.29652c0.510338,0.765507 0.340225,1.786182 -0.425281,2.29652c-0.765507,0.510338 -1.786182,0.340225 -2.29652,-0.425281c-2.041351,-2.891914 -6.038996,-3.572364 -8.93091,-1.445957c-1.360901,1.020675 -2.29652,2.466632 -2.636745,4.167758c-0.255169,1.701126 0.085056,3.402252 1.105732,4.763152c0.510338,0.765507 0.340225,1.786182 -0.425281,2.29652c-0.170113,0.085056 -0.510338,0.255169 -0.850563,0.255169z" fill="#647ebb"/>
    </g>
    <g stroke="null" id="svg_5">
     <g stroke="null" id="svg_6">
      <path stroke="null" id="svg_7" d="m32.854276,14.112006c-0.510338,0 -1.020675,-0.255169 -1.360901,-0.68045c-0.510338,-0.765507 -0.340225,-1.786182 0.425281,-2.29652l1.190788,-0.850563c0.765507,-0.510338 1.786182,-0.340225 2.29652,0.425281c0.510338,0.765507 0.340225,1.786182 -0.425281,2.29652l-1.190788,0.850563c-0.255169,0.170113 -0.595394,0.255169 -0.935619,0.255169z" fill="#647ebb"/>
     </g>
     <g stroke="null" id="svg_8">
      <path stroke="null" id="svg_9" d="m7.932783,31.88877c-0.510338,0 -1.020675,-0.255169 -1.360901,-0.68045c-0.510338,-0.765507 -0.340225,-1.786182 0.425281,-2.29652l1.190788,-0.850563c0.765507,-0.510338 1.786182,-0.340225 2.29652,0.425281c0.510338,0.765507 0.340225,1.786182 -0.425281,2.29652l-1.190788,0.850563c-0.255169,0.170113 -0.595394,0.255169 -0.935619,0.255169z" fill="#647ebb"/>
     </g>
    </g>
    <g stroke="null" id="svg_10">
     <g stroke="null" id="svg_11">
      <path stroke="null" id="svg_12" d="m12.525823,10.709754c-0.510338,0 -1.020675,-0.255169 -1.360901,-0.68045l-0.850563,-1.190788c-0.510338,-0.765507 -0.340225,-1.786182 0.425281,-2.29652c0.765507,-0.510338 1.786182,-0.340225 2.29652,0.425281l0.850563,1.190788c0.510338,0.765507 0.340225,1.786182 -0.425281,2.29652c-0.255169,0.170113 -0.595394,0.255169 -0.935619,0.255169z" fill="#647ebb"/>
     </g>
    </g>
    <g stroke="null" id="svg_13">
     <g stroke="null" id="svg_14">
      <path stroke="null" id="svg_15" d="m6.656939,20.151002c-0.085056,0 -0.170113,0 -0.255169,0l-1.445957,-0.255169c-0.935619,-0.170113 -1.531013,-1.020675 -1.360901,-1.956295c0.170113,-0.935619 1.020675,-1.531013 1.956295,-1.360901l1.445957,0.255169c0.935619,0.170113 1.531013,1.020675 1.360901,1.956295c-0.255169,0.850563 -0.935619,1.360901 -1.701126,1.360901z" fill="#647ebb"/>
     </g>
    </g>
    <g stroke="null" id="svg_16">
     <g stroke="null" id="svg_17">
      <path stroke="null" id="svg_18" d="m23.413028,8.158066c-0.085056,0 -0.170113,0 -0.255169,0c-0.935619,-0.170113 -1.531013,-1.020675 -1.360901,-1.956295l0.255169,-1.445957c0.170113,-0.935619 1.020675,-1.531013 1.956295,-1.360901c0.935619,0.170113 1.531013,1.020675 1.360901,1.956295l-0.255169,1.445957c-0.255169,0.850563 -0.935619,1.360901 -1.701126,1.360901z" fill="#647ebb"/>
     </g>
    </g>
   </g>
   <g stroke="null" id="svg_19">
    <path stroke="null" id="svg_20" d="m14.65223,38.438104c-0.170113,0 -0.340225,0 -0.595394,-0.085056c-0.850563,-0.340225 -1.275844,-1.275844 -1.020675,-2.126407c0.085056,-0.170113 7.314841,-19.648003 28.834082,-17.691708c0.935619,0.085056 1.616069,0.850563 1.531013,1.786182c-0.085056,0.935619 -0.850563,1.616069 -1.786182,1.531013c-18.967552,-1.701126 -25.176661,14.799794 -25.43183,15.565301c-0.170113,0.595394 -0.850563,1.020675 -1.531013,1.020675z" fill="#647ebb"/>
   </g>
  </g>
 </g>
</svg>